<?xml version="1.0" encoding="UTF-8" standalone="no"?>
<!DOCTYPE svg PUBLIC "-//W3C//DTD SVG 1.1//EN"
 "http://www.w3.org/Graphics/SVG/1.1/DTD/svg11.dtd">
<!-- Generated by graphviz version 2.38.0 (20140413.2041)
 -->
<!-- Title: concentrated Pages: 1 -->
<svg width="747pt" height="305pt"
 viewBox="0.00 0.00 746.97 305.00" xmlns="http://www.w3.org/2000/svg" xmlns:xlink="http://www.w3.org/1999/xlink">
<g id="graph0" class="graph" transform="scale(1 1) rotate(0) translate(4 301)">
<title>concentrated</title>
<polygon fill="white" stroke="none" points="-4,4 -4,-301 742.966,-301 742.966,4 -4,4"/>
<g id="clust1" class="cluster"><title>cluster_daq</title>
<polygon fill="none" stroke="black" points="8,-22 8,-259 278.594,-259 278.594,-22 8,-22"/>
<text text-anchor="middle" x="143.297" y="-243.8" font-family="Times,serif" font-size="14.00">DAQ</text>
</g>
<g id="clust2" class="cluster"><title>cluster_obs</title>
<polygon fill="none" stroke="black" points="354.594,-44 354.594,-289 730.966,-289 730.966,-44 354.594,-44"/>
<text text-anchor="middle" x="542.78" y="-273.8" font-family="Times,serif" font-size="14.00">Concentrated Online Buffer System</text>
</g>
<!-- daq1 -->
<g id="node1" class="node"><title>daq1</title>
<polygon fill="none" stroke="black" points="72,-228 16,-228 16,-192 72,-192 72,-228"/>
<text text-anchor="middle" x="44" y="-206.3" font-family="Times,serif" font-size="14.00">EB1+2</text>
</g>
<!-- swdaq -->
<g id="node5" class="node"><title>swdaq</title>
<polygon fill="none" stroke="black" points="270.391,-107.544 270.391,-122.456 235.482,-133 186.112,-133 151.202,-122.456 151.202,-107.544 186.112,-97 235.482,-97 270.391,-107.544"/>
<text text-anchor="middle" x="210.797" y="-111.3" font-family="Times,serif" font-size="14.00">DAQ switch</text>
</g>
<!-- daq1&#45;&gt;swdaq -->
<g id="edge1" class="edge"><title>daq1&#45;&gt;swdaq</title>
<path fill="none" stroke="black" stroke-width="2" d="M72.2216,-196.071C89.7425,-186.957 112.912,-174.624 133,-163 146.711,-155.066 161.524,-145.943 174.449,-137.795"/>
<polygon fill="black" stroke="black" stroke-width="2" points="176.487,-140.647 183.058,-132.336 172.739,-134.735 176.487,-140.647"/>
<text text-anchor="middle" x="111.5" y="-189.8" font-family="Times,serif" font-size="14.00">10Gbps</text>
</g>
<!-- daq2 -->
<g id="node2" class="node"><title>daq2</title>
<polygon fill="none" stroke="black" points="72,-174 16,-174 16,-138 72,-138 72,-174"/>
<text text-anchor="middle" x="44" y="-152.3" font-family="Times,serif" font-size="14.00">EB3+4</text>
</g>
<!-- daq2&#45;&gt;swdaq -->
<g id="edge2" class="edge"><title>daq2&#45;&gt;swdaq</title>
<path fill="none" stroke="black" stroke-width="2" d="M72.2129,-149.23C94.3593,-143.72 126.349,-135.761 153.91,-128.904"/>
<polygon fill="black" stroke="black" stroke-width="2" points="154.978,-132.245 163.837,-126.434 153.288,-125.452 154.978,-132.245"/>
<text text-anchor="middle" x="111.5" y="-147.8" font-family="Times,serif" font-size="14.00">10Gbps</text>
</g>
<!-- daq3 -->
<g id="node3" class="node"><title>daq3</title>
<polygon fill="none" stroke="black" points="72,-120 16,-120 16,-84 72,-84 72,-120"/>
<text text-anchor="middle" x="44" y="-98.3" font-family="Times,serif" font-size="14.00">EB5+6</text>
</g>
<!-- daq3&#45;&gt;swdaq -->
<g id="edge3" class="edge"><title>daq3&#45;&gt;swdaq</title>
<path fill="none" stroke="black" stroke-width="2" d="M72.2129,-104.147C90.9311,-105.623 116.681,-107.655 140.845,-109.561"/>
<polygon fill="black" stroke="black" stroke-width="2" points="140.835,-113.071 151.079,-110.368 141.385,-106.092 140.835,-113.071"/>
<text text-anchor="middle" x="111.5" y="-112.8" font-family="Times,serif" font-size="14.00">10Gbps</text>
</g>
<!-- daq4 -->
<g id="node4" class="node"><title>daq4</title>
<polygon fill="none" stroke="black" points="72,-66 16,-66 16,-30 72,-30 72,-66"/>
<text text-anchor="middle" x="44" y="-44.3" font-family="Times,serif" font-size="14.00">EB7+8</text>
</g>
<!-- daq4&#45;&gt;swdaq -->
<g id="edge4" class="edge"><title>daq4&#45;&gt;swdaq</title>
<path fill="none" stroke="black" stroke-width="2" d="M72.2129,-59.0637C97.3729,-69.2928 135.238,-84.6871 164.879,-96.7382"/>
<polygon fill="black" stroke="black" stroke-width="2" points="163.606,-99.9986 174.187,-100.523 166.242,-93.514 163.606,-99.9986"/>
<text text-anchor="middle" x="111.5" y="-87.8" font-family="Times,serif" font-size="14.00">10Gbps</text>
</g>
<!-- swobs -->
<g id="node6" class="node"><title>swobs</title>
<polygon fill="none" stroke="black" points="478.153,-107.544 478.153,-122.456 444.252,-133 396.308,-133 362.407,-122.456 362.407,-107.544 396.308,-97 444.252,-97 478.153,-107.544"/>
<text text-anchor="middle" x="420.28" y="-111.3" font-family="Times,serif" font-size="14.00">OBS switch</text>
</g>
<!-- swdaq&#45;&gt;swobs -->
<g id="edge5" class="edge"><title>swdaq&#45;&gt;swobs</title>
<path fill="none" stroke="black" stroke-width="4" d="M270.421,-115C295.917,-115 325.928,-115 352.299,-115"/>
<polygon fill="black" stroke="black" stroke-width="4" points="352.589,-118.5 362.589,-115 352.589,-111.5 352.589,-118.5"/>
<text text-anchor="middle" x="316.594" y="-118.8" font-family="Times,serif" font-size="14.00">2x10Gbps</text>
</g>
<!-- obs01 -->
<g id="node7" class="node"><title>obs01</title>
<polygon fill="none" stroke="black" points="629.966,-133 569.966,-133 569.966,-97 629.966,-97 629.966,-133"/>
<text text-anchor="middle" x="599.966" y="-111.3" font-family="Times,serif" font-size="14.00">OBS 01</text>
</g>
<!-- swobs&#45;&gt;obs01 -->
<g id="edge6" class="edge"><title>swobs&#45;&gt;obs01</title>
<path fill="none" stroke="black" d="M488.174,-115C512.202,-115 538.516,-115 559.468,-115"/>
<polygon fill="black" stroke="black" points="487.99,-111.5 477.99,-115 487.99,-118.5 487.99,-111.5"/>
<polygon fill="black" stroke="black" points="559.591,-118.5 569.591,-115 559.591,-111.5 559.591,-118.5"/>
<text text-anchor="middle" x="523.966" y="-118.8" font-family="Times,serif" font-size="14.00">10Gbps</text>
</g>
<!-- obs02 -->
<g id="node8" class="node"><title>obs02</title>
<polygon fill="none" stroke="black" points="629.966,-201 569.966,-201 569.966,-165 629.966,-165 629.966,-201"/>
<text text-anchor="middle" x="599.966" y="-179.3" font-family="Times,serif" font-size="14.00">OBS 02</text>
</g>
<!-- swobs&#45;&gt;obs02 -->
<g id="edge7" class="edge"><title>swobs&#45;&gt;obs02</title>
<path fill="none" stroke="black" d="M467.378,-132.642C496.246,-143.689 533.019,-157.762 560.349,-168.221"/>
<polygon fill="black" stroke="black" points="468.257,-129.23 457.666,-128.925 465.755,-135.768 468.257,-129.23"/>
<polygon fill="black" stroke="black" points="559.368,-171.593 569.958,-171.899 561.87,-165.056 559.368,-171.593"/>
<text text-anchor="middle" x="523.966" y="-168.8" font-family="Times,serif" font-size="14.00">10Gbps</text>
</g>
<!-- EOS -->
<g id="node13" class="node"><title>EOS</title>
<polygon fill="none" stroke="black" points="626.966,-36 572.966,-36 572.966,-0 626.966,-0 626.966,-36"/>
<text text-anchor="middle" x="599.966" y="-14.3" font-family="Times,serif" font-size="14.00">EOS</text>
</g>
<!-- swobs&#45;&gt;EOS -->
<g id="edge12" class="edge"><title>swobs&#45;&gt;EOS</title>
<path fill="none" stroke="black" stroke-width="4" d="M451.021,-98.7644C482.176,-81.7566 531.077,-55.0611 564.045,-37.0636"/>
<polygon fill="black" stroke="black" stroke-width="4" points="565.793,-40.097 572.894,-32.2333 562.439,-33.9529 565.793,-40.097"/>
<text text-anchor="middle" x="523.966" y="-76.8" font-family="Times,serif" font-size="14.00">2x10Gbps</text>
</g>
<!-- obss1a -->
<g id="node9" class="node"><title>obss1a</title>
<polygon fill="none" stroke="black" points="722.966,-90 666.966,-90 666.966,-52 722.966,-52 722.966,-90"/>
<text text-anchor="middle" x="694.966" y="-74.8" font-family="Times,serif" font-size="14.00">storage</text>
<text text-anchor="middle" x="694.966" y="-59.8" font-family="Times,serif" font-size="14.00">unit a</text>
</g>
<!-- obs01&#45;&gt;obss1a -->
<g id="edge8" class="edge"><title>obs01&#45;&gt;obss1a</title>
<path fill="none" stroke="black" d="M630.137,-101.199C638.835,-97.0837 648.477,-92.522 657.576,-88.217"/>
<polygon fill="black" stroke="black" points="659.257,-91.2937 666.799,-83.8532 656.263,-84.9662 659.257,-91.2937"/>
</g>
<!-- obss1b -->
<g id="node10" class="node"><title>obss1b</title>
<polygon fill="none" stroke="black" points="722.966,-146 666.966,-146 666.966,-108 722.966,-108 722.966,-146"/>
<text text-anchor="middle" x="694.966" y="-130.8" font-family="Times,serif" font-size="14.00">storage</text>
<text text-anchor="middle" x="694.966" y="-115.8" font-family="Times,serif" font-size="14.00">unit b</text>
</g>
<!-- obs01&#45;&gt;obss1b -->
<g id="edge9" class="edge"><title>obs01&#45;&gt;obss1b</title>
<path fill="none" stroke="black" d="M630.137,-118.764C638.56,-119.851 647.869,-121.052 656.712,-122.193"/>
<polygon fill="black" stroke="black" points="656.434,-125.686 666.799,-123.495 657.33,-118.744 656.434,-125.686"/>
</g>
<!-- obss2a -->
<g id="node11" class="node"><title>obss2a</title>
<polygon fill="none" stroke="black" points="722.966,-202 666.966,-202 666.966,-164 722.966,-164 722.966,-202"/>
<text text-anchor="middle" x="694.966" y="-186.8" font-family="Times,serif" font-size="14.00">storage</text>
<text text-anchor="middle" x="694.966" y="-171.8" font-family="Times,serif" font-size="14.00">unit a</text>
</g>
<!-- obs02&#45;&gt;obss2a -->
<g id="edge10" class="edge"><title>obs02&#45;&gt;obss2a</title>
<path fill="none" stroke="black" d="M630.137,-183C638.56,-183 647.869,-183 656.712,-183"/>
<polygon fill="black" stroke="black" points="656.799,-186.5 666.799,-183 656.799,-179.5 656.799,-186.5"/>
</g>
<!-- obss2b -->
<g id="node12" class="node"><title>obss2b</title>
<polygon fill="none" stroke="black" points="722.966,-258 666.966,-258 666.966,-220 722.966,-220 722.966,-258"/>
<text text-anchor="middle" x="694.966" y="-242.8" font-family="Times,serif" font-size="14.00">storage</text>
<text text-anchor="middle" x="694.966" y="-227.8" font-family="Times,serif" font-size="14.00">unit b</text>
</g>
<!-- obs02&#45;&gt;obss2b -->
<g id="edge11" class="edge"><title>obs02&#45;&gt;obss2b</title>
<path fill="none" stroke="black" d="M630.137,-200.565C639.018,-205.913 648.883,-211.853 658.15,-217.433"/>
<polygon fill="black" stroke="black" points="656.427,-220.481 666.799,-222.641 660.038,-214.484 656.427,-220.481"/>
</g>
</g>
</svg>
