<?xml version="1.0" encoding="UTF-8" standalone="no"?>
<!DOCTYPE svg PUBLIC "-//W3C//DTD SVG 1.1//EN"
 "http://www.w3.org/Graphics/SVG/1.1/DTD/svg11.dtd">
<!-- Generated by graphviz version 2.38.0 (20140413.2041)
 -->
<!-- Title: context Pages: 1 -->
<svg width="544pt" height="175pt"
 viewBox="0.00 0.00 544.27 175.00" xmlns="http://www.w3.org/2000/svg" xmlns:xlink="http://www.w3.org/1999/xlink">
<g id="graph0" class="graph" transform="scale(1 1) rotate(0) translate(4 171)">
<title>context</title>
<polygon fill="white" stroke="none" points="-4,4 -4,-171 540.267,-171 540.267,4 -4,4"/>
<g id="clust1" class="cluster"><title>cluster_hall</title>
<polygon fill="none" stroke="black" points="8,-13 8,-159 219,-159 219,-13 8,-13"/>
<text text-anchor="middle" x="113.5" y="-143.8" font-family="Times,serif" font-size="14.00">EHN1/NP04 experiment area</text>
</g>
<!-- daq -->
<g id="node1" class="node"><title>daq</title>
<polygon fill="none" stroke="black" points="70,-92 16,-92 16,-56 70,-56 70,-92"/>
<text text-anchor="middle" x="43" y="-70.3" font-family="Times,serif" font-size="14.00">DAQ</text>
</g>
<!-- buf -->
<g id="node2" class="node"><title>buf</title>
<polygon fill="none" stroke="black" points="211,-127.5 106,-127.5 106,-20.5 211,-20.5 211,-127.5"/>
<text text-anchor="middle" x="158.5" y="-99.5" font-family="Times,serif" font-size="30.00">Online</text>
<text text-anchor="middle" x="158.5" y="-66.5" font-family="Times,serif" font-size="30.00">Buffer</text>
<text text-anchor="middle" x="158.5" y="-33.5" font-family="Times,serif" font-size="30.00">System</text>
</g>
<!-- daq&#45;&gt;buf -->
<g id="edge1" class="edge"><title>daq&#45;&gt;buf</title>
<path fill="none" stroke="black" d="M70.0392,-74C77.7426,-74 86.5263,-74 95.4866,-74"/>
<polygon fill="black" stroke="black" points="95.6299,-77.5001 105.63,-74 95.6298,-70.5001 95.6299,-77.5001"/>
</g>
<!-- net -->
<g id="node3" class="node"><title>net</title>
<ellipse fill="none" stroke="black" cx="290.134" cy="-74" rx="43.2674" ry="43.2674"/>
<text text-anchor="middle" x="290.134" y="-77.8" font-family="Times,serif" font-size="14.00">CERN</text>
<text text-anchor="middle" x="290.134" y="-62.8" font-family="Times,serif" font-size="14.00">network</text>
</g>
<!-- buf&#45;&gt;net -->
<g id="edge2" class="edge"><title>buf&#45;&gt;net</title>
<path fill="none" stroke="black" d="M211.107,-74C219.54,-74 228.285,-74 236.737,-74"/>
<polygon fill="black" stroke="black" points="236.86,-77.5001 246.86,-74 236.86,-70.5001 236.86,-77.5001"/>
</g>
<!-- eos -->
<g id="node4" class="node"><title>eos</title>
<polygon fill="none" stroke="black" points="423.267,-93 369.267,-93 369.267,-55 423.267,-55 423.267,-93"/>
<text text-anchor="middle" x="396.267" y="-77.8" font-family="Times,serif" font-size="14.00">EOS</text>
<text text-anchor="middle" x="396.267" y="-62.8" font-family="Times,serif" font-size="14.00">disk</text>
</g>
<!-- net&#45;&gt;eos -->
<g id="edge3" class="edge"><title>net&#45;&gt;eos</title>
<path fill="none" stroke="black" d="M333.489,-74C341.961,-74 350.79,-74 359.033,-74"/>
<polygon fill="black" stroke="black" points="359.091,-77.5001 369.091,-74 359.091,-70.5001 359.091,-77.5001"/>
</g>
<!-- castor -->
<g id="node5" class="node"><title>castor</title>
<polygon fill="none" stroke="black" points="532.767,-148 462.767,-148 462.767,-110 532.767,-110 532.767,-148"/>
<text text-anchor="middle" x="497.767" y="-132.8" font-family="Times,serif" font-size="14.00">CASTOR</text>
<text text-anchor="middle" x="497.767" y="-117.8" font-family="Times,serif" font-size="14.00">tape</text>
</g>
<!-- eos&#45;&gt;castor -->
<g id="edge4" class="edge"><title>eos&#45;&gt;castor</title>
<path fill="none" stroke="black" d="M423.409,-88.4506C432.672,-93.5708 443.357,-99.4767 453.655,-105.169"/>
<polygon fill="black" stroke="black" points="452.114,-108.317 462.56,-110.091 455.501,-102.19 452.114,-108.317"/>
</g>
<!-- fnal -->
<g id="node6" class="node"><title>fnal</title>
<polygon fill="none" stroke="black" points="530.767,-92 464.767,-92 464.767,-56 530.767,-56 530.767,-92"/>
<text text-anchor="middle" x="497.767" y="-70.3" font-family="Times,serif" font-size="14.00">Fermilab</text>
</g>
<!-- eos&#45;&gt;fnal -->
<g id="edge5" class="edge"><title>eos&#45;&gt;fnal</title>
<path fill="none" stroke="black" d="M423.409,-74C432.91,-74 443.906,-74 454.446,-74"/>
<polygon fill="black" stroke="black" points="454.763,-77.5001 464.763,-74 454.763,-70.5001 454.763,-77.5001"/>
</g>
<!-- inst -->
<g id="node7" class="node"><title>inst</title>
<polygon fill="none" stroke="black" points="536.267,-38 459.267,-38 459.267,-0 536.267,-0 536.267,-38"/>
<text text-anchor="middle" x="497.767" y="-22.8" font-family="Times,serif" font-size="14.00">Other</text>
<text text-anchor="middle" x="497.767" y="-7.8" font-family="Times,serif" font-size="14.00">Institutions</text>
</g>
<!-- eos&#45;&gt;inst -->
<g id="edge6" class="edge"><title>eos&#45;&gt;inst</title>
<path fill="none" stroke="black" d="M423.409,-59.5494C432.583,-54.4784 443.151,-48.6368 453.358,-42.9952"/>
<polygon fill="black" stroke="black" points="455.131,-46.0143 462.189,-38.1133 451.744,-39.8879 455.131,-46.0143"/>
</g>
<!-- fnal&#45;&gt;inst -->
<g id="edge7" class="edge"><title>fnal&#45;&gt;inst</title>
<path fill="none" stroke="black" d="M497.767,-55.8893C497.767,-53.4209 497.767,-50.9524 497.767,-48.484"/>
<polygon fill="black" stroke="black" points="501.267,-48.3359 497.767,-38.3359 494.267,-48.336 501.267,-48.3359"/>
</g>
</g>
</svg>
