<?xml version="1.0" encoding="UTF-8" standalone="no"?>
<!DOCTYPE svg PUBLIC "-//W3C//DTD SVG 1.1//EN"
 "http://www.w3.org/Graphics/SVG/1.1/DTD/svg11.dtd">
<!-- Generated by graphviz version 2.38.0 (20140413.2041)
 -->
<!-- Title: diffuse Pages: 1 -->
<svg width="654pt" height="301pt"
 viewBox="0.00 0.00 653.97 301.00" xmlns="http://www.w3.org/2000/svg" xmlns:xlink="http://www.w3.org/1999/xlink">
<g id="graph0" class="graph" transform="scale(1 1) rotate(0) translate(4 297)">
<title>diffuse</title>
<polygon fill="white" stroke="none" points="-4,4 -4,-297 649.966,-297 649.966,4 -4,4"/>
<g id="clust1" class="cluster"><title>cluster_daq</title>
<polygon fill="none" stroke="black" points="8,-23 8,-260 278.594,-260 278.594,-23 8,-23"/>
<text text-anchor="middle" x="143.297" y="-244.8" font-family="Times,serif" font-size="14.00">DAQ</text>
</g>
<g id="clust2" class="cluster"><title>cluster_obs</title>
<polygon fill="none" stroke="black" points="354.594,-46 354.594,-285 637.966,-285 637.966,-46 354.594,-46"/>
<text text-anchor="middle" x="496.28" y="-269.8" font-family="Times,serif" font-size="14.00">Diffuse Online Buffer System</text>
</g>
<!-- daq1 -->
<g id="node1" class="node"><title>daq1</title>
<polygon fill="none" stroke="black" points="72,-229 16,-229 16,-193 72,-193 72,-229"/>
<text text-anchor="middle" x="44" y="-207.3" font-family="Times,serif" font-size="14.00">EB1+2</text>
</g>
<!-- swdaq -->
<g id="node5" class="node"><title>swdaq</title>
<polygon fill="none" stroke="black" points="270.391,-118.544 270.391,-133.456 235.482,-144 186.112,-144 151.202,-133.456 151.202,-118.544 186.112,-108 235.482,-108 270.391,-118.544"/>
<text text-anchor="middle" x="210.797" y="-122.3" font-family="Times,serif" font-size="14.00">DAQ switch</text>
</g>
<!-- daq1&#45;&gt;swdaq -->
<g id="edge1" class="edge"><title>daq1&#45;&gt;swdaq</title>
<path fill="none" stroke="black" stroke-width="2" d="M72.0545,-197.706C89.5087,-189.072 112.666,-177.509 133,-167 145.411,-160.586 158.873,-153.458 171.007,-146.968"/>
<polygon fill="black" stroke="black" stroke-width="2" points="172.83,-149.962 179.989,-142.152 169.522,-143.793 172.83,-149.962"/>
<text text-anchor="middle" x="111.5" y="-190.8" font-family="Times,serif" font-size="14.00">10Gbps</text>
</g>
<!-- daq2 -->
<g id="node2" class="node"><title>daq2</title>
<polygon fill="none" stroke="black" points="72,-175 16,-175 16,-139 72,-139 72,-175"/>
<text text-anchor="middle" x="44" y="-153.3" font-family="Times,serif" font-size="14.00">EB3+4</text>
</g>
<!-- daq2&#45;&gt;swdaq -->
<g id="edge2" class="edge"><title>daq2&#45;&gt;swdaq</title>
<path fill="none" stroke="black" stroke-width="2" d="M72.2129,-151.881C92.8841,-147.993 122.131,-142.491 148.348,-137.559"/>
<polygon fill="black" stroke="black" stroke-width="2" points="149.042,-140.99 158.223,-135.702 147.748,-134.111 149.042,-140.99"/>
<text text-anchor="middle" x="111.5" y="-151.8" font-family="Times,serif" font-size="14.00">10Gbps</text>
</g>
<!-- daq3 -->
<g id="node3" class="node"><title>daq3</title>
<polygon fill="none" stroke="black" points="72,-121 16,-121 16,-85 72,-85 72,-121"/>
<text text-anchor="middle" x="44" y="-99.3" font-family="Times,serif" font-size="14.00">EB5+6</text>
</g>
<!-- daq3&#45;&gt;swdaq -->
<g id="edge3" class="edge"><title>daq3&#45;&gt;swdaq</title>
<path fill="none" stroke="black" stroke-width="2" d="M72.2129,-106.798C91.4164,-109.478 118.021,-113.191 142.722,-116.639"/>
<polygon fill="black" stroke="black" stroke-width="2" points="142.41,-120.129 152.798,-118.045 143.378,-113.196 142.41,-120.129"/>
<text text-anchor="middle" x="111.5" y="-119.8" font-family="Times,serif" font-size="14.00">10Gbps</text>
</g>
<!-- daq4 -->
<g id="node4" class="node"><title>daq4</title>
<polygon fill="none" stroke="black" points="72,-67 16,-67 16,-31 72,-31 72,-67"/>
<text text-anchor="middle" x="44" y="-45.3" font-family="Times,serif" font-size="14.00">EB7+8</text>
</g>
<!-- daq4&#45;&gt;swdaq -->
<g id="edge4" class="edge"><title>daq4&#45;&gt;swdaq</title>
<path fill="none" stroke="black" stroke-width="2" d="M72.2129,-61.715C98.1154,-73.8177 137.483,-92.2121 167.481,-106.228"/>
<polygon fill="black" stroke="black" stroke-width="2" points="166.321,-109.549 176.862,-110.612 169.284,-103.207 166.321,-109.549"/>
<text text-anchor="middle" x="111.5" y="-93.8" font-family="Times,serif" font-size="14.00">10Gbps</text>
</g>
<!-- swobs -->
<g id="node6" class="node"><title>swobs</title>
<polygon fill="none" stroke="black" points="478.153,-118.544 478.153,-133.456 444.252,-144 396.308,-144 362.407,-133.456 362.407,-118.544 396.308,-108 444.252,-108 478.153,-118.544"/>
<text text-anchor="middle" x="420.28" y="-122.3" font-family="Times,serif" font-size="14.00">OBS switch</text>
</g>
<!-- swdaq&#45;&gt;swobs -->
<g id="edge5" class="edge"><title>swdaq&#45;&gt;swobs</title>
<path fill="none" stroke="black" stroke-width="4" d="M270.421,-126C295.917,-126 325.928,-126 352.299,-126"/>
<polygon fill="black" stroke="black" stroke-width="4" points="352.589,-129.5 362.589,-126 352.589,-122.5 352.589,-129.5"/>
<text text-anchor="middle" x="316.594" y="-129.8" font-family="Times,serif" font-size="14.00">2x10Gbps</text>
</g>
<!-- obs01 -->
<g id="node7" class="node"><title>obs01</title>
<polygon fill="none" stroke="black" points="629.966,-90 569.966,-90 569.966,-54 629.966,-54 629.966,-90"/>
<text text-anchor="middle" x="599.966" y="-68.3" font-family="Times,serif" font-size="14.00">OBS 01</text>
</g>
<!-- swobs&#45;&gt;obs01 -->
<g id="edge6" class="edge"><title>swobs&#45;&gt;obs01</title>
<path fill="none" stroke="black" d="M472.461,-110.446C500.386,-101.959 534.403,-91.6212 560.127,-83.8036"/>
<polygon fill="black" stroke="black" points="471.042,-107.219 462.492,-113.476 473.077,-113.917 471.042,-107.219"/>
<polygon fill="black" stroke="black" points="561.348,-87.0905 569.899,-80.8339 559.313,-80.3929 561.348,-87.0905"/>
<text text-anchor="middle" x="523.966" y="-106.8" font-family="Times,serif" font-size="14.00">1Gbps</text>
</g>
<!-- obs02 -->
<g id="node8" class="node"><title>obs02</title>
<polygon fill="none" stroke="black" points="629.966,-144 569.966,-144 569.966,-108 629.966,-108 629.966,-144"/>
<text text-anchor="middle" x="599.966" y="-122.3" font-family="Times,serif" font-size="14.00">OBS 02</text>
</g>
<!-- swobs&#45;&gt;obs02 -->
<g id="edge7" class="edge"><title>swobs&#45;&gt;obs02</title>
<path fill="none" stroke="black" d="M488.174,-126C512.202,-126 538.516,-126 559.468,-126"/>
<polygon fill="black" stroke="black" points="487.99,-122.5 477.99,-126 487.99,-129.5 487.99,-122.5"/>
<polygon fill="black" stroke="black" points="559.591,-129.5 569.591,-126 559.591,-122.5 559.591,-129.5"/>
<text text-anchor="middle" x="523.966" y="-129.8" font-family="Times,serif" font-size="14.00">1Gbps</text>
</g>
<!-- obs0n -->
<g id="node9" class="node"><title>obs0n</title>
<polygon fill="none" stroke="black" points="627.466,-200 572.466,-200 572.466,-162 627.466,-162 627.466,-200"/>
<text text-anchor="middle" x="599.966" y="-184.8" font-family="Times,serif" font-size="14.00">OBS</text>
<text text-anchor="middle" x="599.966" y="-169.8" font-family="Times,serif" font-size="14.00">03...59</text>
</g>
<!-- swobs&#45;&gt;obs0n -->
<g id="edge8" class="edge"><title>swobs&#45;&gt;obs0n</title>
<path fill="none" stroke="black" d="M471.91,-141.672C500.828,-150.623 536.419,-161.639 562.569,-169.734"/>
<polygon fill="black" stroke="black" points="472.633,-138.232 462.045,-138.618 470.563,-144.919 472.633,-138.232"/>
<polygon fill="black" stroke="black" points="561.858,-173.177 572.445,-172.791 563.927,-166.49 561.858,-173.177"/>
</g>
<!-- obs60 -->
<g id="node10" class="node"><title>obs60</title>
<polygon fill="none" stroke="black" points="629.966,-254 569.966,-254 569.966,-218 629.966,-218 629.966,-254"/>
<text text-anchor="middle" x="599.966" y="-232.3" font-family="Times,serif" font-size="14.00">OBS 60</text>
</g>
<!-- swobs&#45;&gt;obs60 -->
<g id="edge9" class="edge"><title>swobs&#45;&gt;obs60</title>
<path fill="none" stroke="black" d="M457.571,-148.466C487.735,-167.14 530.518,-193.625 561.109,-212.563"/>
<polygon fill="black" stroke="black" points="458.999,-145.234 448.654,-142.946 455.314,-151.186 458.999,-145.234"/>
<polygon fill="black" stroke="black" points="559.443,-215.649 569.788,-217.936 563.127,-209.697 559.443,-215.649"/>
<text text-anchor="middle" x="523.966" y="-209.8" font-family="Times,serif" font-size="14.00">1Gbps</text>
</g>
<!-- EOS -->
<g id="node11" class="node"><title>EOS</title>
<polygon fill="none" stroke="black" points="626.966,-36 572.966,-36 572.966,-0 626.966,-0 626.966,-36"/>
<text text-anchor="middle" x="599.966" y="-14.3" font-family="Times,serif" font-size="14.00">EOS</text>
</g>
<!-- swobs&#45;&gt;EOS -->
<g id="edge10" class="edge"><title>swobs&#45;&gt;EOS</title>
<path fill="none" stroke="black" stroke-width="4" d="M442.308,-107.75C456.818,-95.6489 476.864,-79.873 495.966,-68 517.536,-54.5934 543.231,-42.1146 563.562,-32.9769"/>
<polygon fill="black" stroke="black" stroke-width="4" points="565.052,-36.1448 572.779,-28.8964 562.218,-29.7439 565.052,-36.1448"/>
<text text-anchor="middle" x="523.966" y="-71.8" font-family="Times,serif" font-size="14.00">2x10Gbps</text>
</g>
</g>
</svg>
