<?xml version="1.0" encoding="UTF-8" standalone="no"?>
<!DOCTYPE svg PUBLIC "-//W3C//DTD SVG 1.1//EN"
 "http://www.w3.org/Graphics/SVG/1.1/DTD/svg11.dtd">
<!-- Generated by graphviz version 2.38.0 (20140413.2041)
 -->
<!-- Title: interface Pages: 1 -->
<svg width="433pt" height="170pt"
 viewBox="0.00 0.00 433.27 170.00" xmlns="http://www.w3.org/2000/svg" xmlns:xlink="http://www.w3.org/1999/xlink">
<g id="graph0" class="graph" transform="scale(1 1) rotate(0) translate(4 166)">
<title>interface</title>
<polygon fill="white" stroke="none" points="-4,4 -4,-166 429.267,-166 429.267,4 -4,4"/>
<g id="clust1" class="cluster"><title>cluster_hall</title>
<polygon fill="none" stroke="black" points="8,-8 8,-154 265,-154 265,-8 8,-8"/>
<text text-anchor="middle" x="136.5" y="-138.8" font-family="Times,serif" font-size="14.00">EHN1/NP04 experiment area</text>
</g>
<!-- daq -->
<g id="node1" class="node"><title>daq</title>
<polygon fill="none" stroke="black" points="70,-87 16,-87 16,-51 70,-51 70,-87"/>
<text text-anchor="middle" x="43" y="-65.3" font-family="Times,serif" font-size="14.00">DAQ</text>
</g>
<!-- buf -->
<g id="node2" class="node"><title>buf</title>
<polygon fill="none" stroke="black" points="257,-122.5 152,-122.5 152,-15.5 257,-15.5 257,-122.5"/>
<text text-anchor="middle" x="204.5" y="-94.5" font-family="Times,serif" font-size="30.00">Online</text>
<text text-anchor="middle" x="204.5" y="-61.5" font-family="Times,serif" font-size="30.00">Buffer</text>
<text text-anchor="middle" x="204.5" y="-28.5" font-family="Times,serif" font-size="30.00">System</text>
</g>
<!-- daq&#45;&gt;buf -->
<g id="edge1" class="edge"><title>daq&#45;&gt;buf</title>
<path fill="none" stroke="black" stroke-width="4" d="M70.3382,-69C89.7799,-69 117.059,-69 141.869,-69"/>
<polygon fill="black" stroke="black" stroke-width="4" points="141.956,-72.5001 151.956,-69 141.956,-65.5001 141.956,-72.5001"/>
<text text-anchor="middle" x="111" y="-72.8" font-family="Times,serif" font-size="14.00">20 Gbps</text>
</g>
<!-- net -->
<g id="node3" class="node"><title>net</title>
<ellipse fill="none" stroke="black" cx="382.134" cy="-69" rx="43.2674" ry="43.2674"/>
<text text-anchor="middle" x="382.134" y="-72.8" font-family="Times,serif" font-size="14.00">CERN</text>
<text text-anchor="middle" x="382.134" y="-57.8" font-family="Times,serif" font-size="14.00">network</text>
</g>
<!-- buf&#45;&gt;net -->
<g id="edge2" class="edge"><title>buf&#45;&gt;net</title>
<path fill="none" stroke="black" stroke-width="4" d="M257.246,-69C279.797,-69 306.189,-69 328.806,-69"/>
<polygon fill="black" stroke="black" stroke-width="4" points="328.904,-72.5001 338.904,-69 328.904,-65.5001 328.904,-72.5001"/>
<text text-anchor="middle" x="298" y="-72.8" font-family="Times,serif" font-size="14.00">20 Gbps</text>
</g>
</g>
</svg>
